<svg width="24" height="24" viewBox="0 0 24 24" fill="none" xmlns="http://www.w3.org/2000/svg">
<path d="M14.9907 2.92993C13.7229 2.92993 12.5407 3.76195 12.1718 4.93195L3.99072 4.92993C3.43842 4.92993 2.99072 5.37793 2.99072 5.92993C2.99072 6.48193 3.43842 6.92993 3.99072 6.92993L12.1718 6.92896C12.6199 8.15396 13.7229 8.92993 14.9907 8.92993C16.2585 8.92993 17.3728 8.15196 17.8287 6.92096L19.9907 6.92993C20.543 6.92993 20.9907 6.48193 20.9907 5.92993C20.9907 5.37793 20.543 4.92993 19.9907 4.92993H17.8202C17.3387 3.71093 16.2585 2.92993 14.9907 2.92993ZM14.9907 4.92993C15.543 4.92993 15.9907 5.37793 15.9907 5.92993C15.9907 6.48193 15.543 6.92993 14.9907 6.92993C14.4384 6.92993 13.9907 6.48193 13.9907 5.92993C13.9907 5.37793 14.4384 4.92993 14.9907 4.92993ZM8.99072 8.92993C7.67272 8.92993 6.56952 9.74995 6.16672 10.9319C6.02612 10.9409 3.99072 10.9299 3.99072 10.9299C3.43842 10.9299 2.99072 11.3779 2.99072 11.9299C2.99072 12.4819 3.43842 12.9299 3.99072 12.9299C3.99072 12.9299 6.04312 12.9089 6.17102 12.9219C6.57382 14.1039 7.67272 14.9299 8.99072 14.9299C10.2585 14.9299 11.3449 14.1529 11.8201 12.9329L19.9907 12.9299C20.543 12.9299 20.9907 12.4819 20.9907 11.9299C20.9907 11.3779 20.543 10.9299 19.9907 10.9299L11.8149 10.921C11.3766 9.72796 10.2585 8.92993 8.99072 8.92993ZM8.99072 10.9299C9.54302 10.9299 9.99072 11.3779 9.99072 11.9299C9.99072 12.4819 9.54302 12.9299 8.99072 12.9299C8.43842 12.9299 7.99072 12.4819 7.99072 11.9299C7.99072 11.3779 8.43842 10.9299 8.99072 10.9299ZM14.9907 14.9299C13.7229 14.9299 12.5632 15.7649 12.1711 16.9199L3.99072 16.9299C3.43842 16.9299 2.99072 17.3779 2.99072 17.9299C2.99072 18.4819 3.43842 18.9299 3.99072 18.9299L12.1563 18.9309C12.5712 20.1159 13.7229 20.9299 14.9907 20.9299C16.2585 20.9299 17.3516 20.1369 17.8332 18.9309L19.9907 18.9299C20.543 18.9299 20.9907 18.4819 20.9907 17.9299C20.9907 17.3779 20.543 16.9299 19.9907 16.9299L17.8241 16.924C17.3924 15.741 16.2585 14.9299 14.9907 14.9299ZM14.9907 16.9299C15.543 16.9299 15.9907 17.3779 15.9907 17.9299C15.9907 18.4819 15.543 18.9299 14.9907 18.9299C14.4384 18.9299 13.9907 18.4819 13.9907 17.9299C13.9907 17.3779 14.4384 16.9299 14.9907 16.9299Z" fill="#C1CFD9"/>
</svg>
